<svg width="19" height="18" viewBox="0 0 19 18" fill="none" xmlns="http://www.w3.org/2000/svg">
<path d="M8.7056 16.2008H7.584C4.716 16.2008 3.2824 16.2008 2.3912 15.2928C1.5 14.3848 1.5 12.9232 1.5 10.0008C1.5 7.07838 1.5 5.61678 2.3912 4.70878C3.2824 3.80078 4.716 3.80078 7.584 3.80078H10.6264C13.4944 3.80078 14.9288 3.80078 15.82 4.70878C16.5056 5.40718 16.6632 6.43358 16.7 8.20078" stroke="white" stroke-width="1.5" stroke-linecap="round" stroke-linejoin="round"/>
<path d="M15.9136 15.4184L17.5 17M12.7 3.8L12.62 3.552C12.224 2.32 12.0264 1.704 11.5552 1.352C11.0832 1 10.4576 1 9.204 1H8.9936C7.7416 1 7.1152 1 6.644 1.352C6.172 1.704 5.9744 2.32 5.5784 3.552L5.5 3.8M16.7424 13.4208C16.7487 13.0463 16.6804 12.6743 16.5414 12.3265C16.4025 11.9787 16.1957 11.662 15.9331 11.395C15.6705 11.1279 15.3574 10.9158 15.0119 10.771C14.6665 10.6263 14.2957 10.5517 13.9212 10.5517C13.5467 10.5517 13.1759 10.6263 12.8305 10.771C12.485 10.9158 12.1719 11.1279 11.9093 11.395C11.6467 11.662 11.4399 11.9787 11.301 12.3265C11.162 12.6743 11.0937 13.0463 11.1 13.4208C11.1125 14.1608 11.4152 14.8663 11.9429 15.3852C12.4706 15.9041 13.1811 16.1949 13.9212 16.1949C14.6613 16.1949 15.3718 15.9041 15.8995 15.3852C16.4272 14.8663 16.7299 14.1608 16.7424 13.4208Z" stroke="white" stroke-width="1.5" stroke-linecap="round" stroke-linejoin="round"/>
</svg>
